<?xml version="1.0" encoding="iso-8859-1"?>
<!-- Generator: Adobe Illustrator 16.0.0, SVG Export Plug-In . SVG Version: 6.00 Build 0)  -->
<!DOCTYPE svg PUBLIC "-//W3C//DTD SVG 1.1//EN" "http://www.w3.org/Graphics/SVG/1.1/DTD/svg11.dtd">
<svg version="1.1" id="Capa_1" xmlns="http://www.w3.org/2000/svg" xmlns:xlink="http://www.w3.org/1999/xlink" x="0px" y="0px"
	 width="379.958px" height="379.958px" viewBox="0 0 379.958 379.958" style="enable-background:new 0 0 379.958 379.958;"
	 xml:space="preserve">
<g>
	<g>
		<path d="M315.667,59.371c11.07-13.878,3.644-26.53,3.644-26.53l-5.581,5.295l-7.007-6.609l-154.424,137.51l4.735,4.998
			L53.148,264.602l92.821-102.408l4.881,4.805L291.31,15.26l-6.446-7.135l5.395-5.488c0,0-12.494-7.666-26.601,3.141
			C249.552,16.591,31.493,259.312,25.526,266.938c-2.546,3.27-1.425,7.251,0.683,10.719L6.621,296.199l12.197,12.893l19.337-18.311
			c3.678,2.627,8.139,4.426,11.835,1.658C57.726,286.625,304.586,73.266,315.667,59.371z"/>
		<path d="M372.604,102.716c1.764-2.966,0.27-7.911-3.713-11.63c-3.982-3.708-9.026-4.857-11.863-2.861l-0.082-0.082l-11.572,12.436
			l-3.736-3.48l-4.484,4.817l-9.038-8.419l-2.896,3.112l9.015,8.431l-2.161,2.33l-9.049-8.431l-2.896,3.112l9.038,8.419l-3.34,3.584
			l-9.038-8.419l-2.884,3.106l9.05,8.431l-2.195,2.335l-9.015-8.431l-2.919,3.118l9.061,8.419l-2.615,2.802l-9.038-8.419
			l-2.919,3.106l9.061,8.431l-2.172,2.341l-9.061-8.425l-2.896,3.118l9.062,8.419l-2.628,2.796l-9.049-8.419l-2.908,3.112
			l9.05,8.431l-2.184,2.341l-9.038-8.431l-2.896,3.112l9.05,8.431L294.252,148l-9.062-8.419l-2.896,3.112l9.062,8.431l-2.184,2.33
			l-9.05-8.431l-2.907,3.124l9.05,8.425l-2.744,2.966l-9.05-8.454l-2.896,3.124l9.037,8.431l-2.195,2.33l-9.037-8.419l-2.896,3.112
			l9.038,8.431l-3.036,3.275l-9.236-8.612l-2.908,3.124l9.226,8.606l-2.172,2.335l-9.237-8.6l-2.884,3.1l9.225,8.6l-23.868,25.62
			l-2.615-1.857l-12.774,13.709c0,0-15.893-7.263-13.943-3.129c5.5,10.953-24.428,41.209-33.186,44.688
			c-16.692,8.863-62.402,60.43-71.026,76.24c-8.513,15.636-18.088,22.326-1.962,37.074c15.858,15.053,21.86,5.01,36.865-4.611
			c15.162-9.716,63.365-58.97,71.014-76.252c2.85-8.979,30.921-40.975,42.225-36.27c4.274,1.67-4.11-13.697-4.11-13.697l3.223-3.456
			c5.559,7.521,25.13,39.259-3.515,81.145c-0.069,2.429,2.16,6.095,3.655,5.745c31.154-29.695,25.83-94.842,25.83-94.842
			s4.577-2.417,4.507-4.822c-0.093-2.23-4.788-12.18-5.512-13.721l8.887-9.552l8.862,8.255l2.908-3.105l-8.863-8.256l2.172-2.324
			l8.863,8.244l2.907-3.117l-8.874-8.256l3.035-3.258l9.062,8.431l2.896-3.106l-9.038-8.431l2.172-2.347l9.038,8.431l2.896-3.094
			l-9.037-8.443l2.755-2.954l9.05,8.431l2.896-3.118l-9.05-8.425l2.184-2.33l9.05,8.431l2.907-3.112l-9.05-8.425l2.464-2.656
			l9.05,8.431l2.896-3.124l-9.039-8.425l2.172-2.347l9.051,8.431l2.896-3.112l-9.05-8.425l2.615-2.814l9.051,8.431l2.896-3.118
			l-9.05-8.431l2.184-2.335l9.05,8.442l2.907-3.118l-9.05-8.431l2.616-2.797l9.038,8.425l2.919-3.106l-9.062-8.442l2.172-2.318
			l9.062,8.419l2.896-3.124l-9.039-8.419l3.328-3.585l9.051,8.431l2.907-3.112l-9.05-8.425l2.172-2.335l9.062,8.431l2.884-3.124
			l-9.05-8.425l4.496-4.823l-4.216-3.923l11.584-12.418L372.604,102.716z"/>
	</g>
</g>
<g>
</g>
<g>
</g>
<g>
</g>
<g>
</g>
<g>
</g>
<g>
</g>
<g>
</g>
<g>
</g>
<g>
</g>
<g>
</g>
<g>
</g>
<g>
</g>
<g>
</g>
<g>
</g>
<g>
</g>
</svg>
