<svg id="Layer_1" enable-background="new 0 0 512 512" height="512" viewBox="0 0 512 512" width="512" xmlns="http://www.w3.org/2000/svg"><g><g><path d="m115.332 357.959c-4.144 0-7.503 3.359-7.503 7.503v15.761c0 4.144 3.359 7.503 7.503 7.503s7.503-3.359 7.503-7.503v-15.761c-.001-4.144-3.359-7.503-7.503-7.503z"/><path d="m188.482 99.469c-.021-.057-.043-.113-.066-.169-1.347-3.323-4.532-5.471-8.114-5.471-3.583 0-6.768 2.147-8.115 5.471-.021.048-.039.098-.058.147l-20.721 54.37c-1.476 3.872.466 8.207 4.339 9.682 3.87 1.478 8.207-.466 9.682-4.339l3.313-8.691h22.954l3.273 8.668c1.134 3.004 3.989 4.855 7.02 4.855.88 0 1.776-.156 2.648-.486 3.876-1.463 5.833-5.792 4.37-9.669zm-14.022 35.994 5.814-15.254 5.757 15.254z"/><path d="m382.296 164.076c4.144 0 7.503-3.359 7.503-7.503v-31.141l23.654 34.27c.024.034.048.068.072.103 2.217 3.099 5.867 4.39 9.299 3.29 3.494-1.122 5.752-4.405 5.752-8.436l-.51-53.462c-.041-4.144-3.437-7.47-7.574-7.431-4.144.04-7.471 3.431-7.431 7.574l.304 31.818-24.894-36.067c-1.865-2.7-5.269-3.877-8.407-2.9-3.135.977-5.271 3.879-5.271 7.163v55.22c0 4.143 3.359 7.502 7.503 7.502z"/><path d="m259.247 148.957c-.016 0-.031 0-.047 0-4.035.024-8.301.042-11.755.048v-47.68c0-4.144-3.359-7.503-7.503-7.503s-7.503 3.359-7.503 7.503v55.135c0 3.602 2.561 6.696 6.099 7.37.592.113.984.188 7.205.188 2.969 0 7.267-.017 13.549-.055 4.143-.025 7.482-3.405 7.457-7.549-.026-4.128-3.38-7.457-7.502-7.457z"/><path d="m117.534 122.321c-6.688-2.469-12.908-5.156-14.909-6.034-1.203-1.008-1.161-2.391-1.079-2.973.123-.859.754-2.96 3.958-3.926 7.455-2.24 14.416 3.248 14.618 3.409 3.17 2.631 7.873 2.213 10.529-.941 2.669-3.169 2.265-7.902-.905-10.572-.531-.447-13.181-10.895-28.572-6.264-7.849 2.367-13.398 8.566-14.484 16.176-1.019 7.15 2.09 14.023 8.112 17.935.325.212.667.398 1.021.556.319.144 7.927 3.541 16.518 6.713 1.774.654 7.513 3.076 6.845 6.816-.505 2.836-4.026 5.769-9.043 5.769-5.314 0-10.422-2.132-13.661-5.702-2.784-3.069-7.531-3.299-10.598-.516-3.069 2.784-3.3 7.529-.516 10.598 6.126 6.753 15.157 10.626 24.775 10.626 11.926 0 21.943-7.63 23.816-18.14 1.415-7.931-2.16-18.276-16.425-23.53z"/><path d="m317.978 163.991c19.345 0 35.084-15.739 35.084-35.084s-15.739-35.084-35.084-35.084-35.083 15.739-35.083 35.084 15.738 35.084 35.083 35.084zm0-55.163c11.071 0 20.079 9.007 20.079 20.079s-9.007 20.079-20.079 20.079c-11.07 0-20.078-9.007-20.078-20.079s9.008-20.079 20.078-20.079z"/><path d="m485.581 265.51v-60.615h9.335c9.42 0 17.084-7.664 17.084-17.083v-117.783c0-9.419-7.664-17.083-17.084-17.083h-30.887l-18.007-40.148c-1.233-2.788-4.118-9.318-11.71-9.318h-356.624c-7.593 0-10.477 6.53-11.693 9.28l-18.024 40.186h-30.888c-9.419 0-17.083 7.664-17.083 17.083v117.783c0 9.419 7.664 17.083 17.083 17.083h9.335v243.903c-14.573 2.044-25.824 14.586-25.824 29.712v17.405c0 6.951 5.654 12.605 12.605 12.605h485.599c6.935 0 12.577-5.654 12.577-12.605v-17.405c0-15.125-11.238-27.666-25.795-29.711v-67.575-115.714zm-405.878-246.647c.048-.108.106-.238.167-.377h352.259c.067.15.13.293.185.415l15.269 34.045h-383.167zm191.987 186.032h198.886v53.112h-185.677c-7.45 0-13.512 5.413-13.512 12.067v106.584c0 6.766 5.935 12.067 13.512 12.067h185.677v59.775h-104.38c-4.144 0-7.503 3.359-7.503 7.503s3.359 7.503 7.503 7.503h115.2c8.257 0 14.975 6.731 14.975 15.005v15.005h-480.771v-15.006c0-8.274 6.731-15.005 15.005-15.005h49.861 136.118 114.972c4.144 0 7.503-3.359 7.503-7.503s-3.359-7.503-7.503-7.503h-107.469v-172.472c0-9.936-8.083-18.019-18.019-18.019h-115.114c-9.921 0-17.991 8.083-17.991 18.019v172.473h-31.539v-243.605h195.654c4.144 0 7.503-3.359 7.503-7.503s-3.359-7.503-7.503-7.503h-219.995c-1.126 0-2.078-.952-2.078-2.078v-17.16h14.777c4.144 0 7.503-3.359 7.503-7.503s-3.359-7.503-7.503-7.503h-14.776v-19.238h14.777c4.144 0 7.503-3.359 7.503-7.503s-3.359-7.503-7.503-7.503h-14.777v-19.209h14.777c4.144 0 7.503-3.359 7.503-7.503s-3.359-7.503-7.503-7.503h-14.777v-17.16c0-1.126.952-2.078 2.078-2.078h477.832c1.126 0 2.079.952 2.079 2.078v17.16h-14.806c-4.144 0-7.503 3.359-7.503 7.503s3.359 7.503 7.503 7.503h14.806v19.209h-14.806c-4.144 0-7.503 3.359-7.503 7.503s3.359 7.503 7.503 7.503h14.806v19.238h-14.806c-4.144 0-7.503 3.359-7.503 7.503s3.359 7.503 7.503 7.503h14.806v17.16c0 1.126-.952 2.078-2.079 2.078h-223.226c-4.144 0-7.503 3.359-7.503 7.503s3.359 7.503 7.503 7.503zm198.886 68.118v100.707l-184.183-.005v-100.702zm-382.607 175.487v-172.473c0-1.633 1.367-3.014 2.985-3.014h115.114c1.633 0 3.014 1.38 3.014 3.014v172.473z"/></g></g></svg>