<svg id="Capa_1" enable-background="new 0 0 512.007 512.007" height="512" viewBox="0 0 512.007 512.007" width="512" xmlns="http://www.w3.org/2000/svg"><g><path d="m156.644 129.414c0-24.813-20.187-45-45-45-59.699 2.472-59.681 87.537 0 90 24.813 0 45-20.187 45-45zm-60 0c0-8.271 6.729-15 15-15 19.9.824 19.894 29.179 0 30-8.271 0-15-6.729-15-15z"/><path d="m135.963 20.442c-3.191-.694-8.438-1.525-9.047-1.621-65.718-9.717-127.692 43.616-126.909 110.593-.001 58.238 44.827 106.195 101.789 111.197l35.024 164.778c5.748 27.038 28.613 46.119 54.82 48.321-6.994 15.792-22.806 26.842-41.16 26.842h-9.281c-10.305 0-19.993-4.013-27.279-11.299l-34.614-34.614c-12.953-12.953-30.174-20.086-48.492-20.086h-30.807v30h30.807c10.305 0 19.993 4.013 27.279 11.299l34.614 34.614c12.953 12.953 30.174 20.086 48.492 20.086h9.281c37.373 0 68.443-27.48 74.081-63.295 35.401-17.239 44.984-66.73 17.631-95.824.001 0-16.053-17.671-16.053-17.671-3.718-4.092-6.292-9.114-7.441-14.522l-7.795-36.674 43.038-9.148-6.237-29.345-43.038 9.148-5.563-26.172 168.211-30.199 78.693 60.523v-255.919l-78.693 60.523zm-105.956 108.972c-.324-49.009 44.13-87.751 92.662-80.891 2.408.389 5.672.94 7.37 1.335l226.159 40.603v77.906l-226.486 40.676c-1.594.36-5.232.974-7.279 1.297-48.361 6.772-92.793-32.058-92.426-80.926zm159.347 196.063c2.253 10.599 7.295 20.439 14.581 28.458l16.055 17.671c16.218 17.5 6.739 46.824-16.608 51.596-8.205 1.782-16.622.243-23.663-4.331-7.003-4.548-11.816-11.551-13.553-19.72l-34.015-160.027c1.331-.238 37.409-6.771 37.409-6.771zm226.653-129.023-29.81-22.927v-88.226l29.81-22.927z"/><path d="m476.007 54.414h36v30h-36z"/><path d="m476.007 114.414h36v30h-36z"/><path d="m476.007 174.414h36v30h-36z"/></g></svg>