<?xml version="1.0" encoding="iso-8859-1"?>
<!-- Generator: Adobe Illustrator 19.0.0, SVG Export Plug-In . SVG Version: 6.00 Build 0)  -->
<svg version="1.1" id="Capa_1" xmlns="http://www.w3.org/2000/svg" xmlns:xlink="http://www.w3.org/1999/xlink" x="0px" y="0px"
	 viewBox="0 0 512 512" style="enable-background:new 0 0 512 512;" xml:space="preserve">
<g>
	<g>
		<path d="M458.667,170.667c-20.318,0-39.039,7.339-53.5,19.688c-0.887-22.754-19.533-41.021-42.5-41.021h-96V128H320
			c23.531,0,42.667-19.135,42.667-42.667V42.667C362.667,19.135,343.531,0,320,0H192c-23.531,0-42.667,19.135-42.667,42.667v42.667
			C149.333,108.865,168.469,128,192,128h53.333v21.333h-96c-22.965,0-41.611,18.266-42.5,41.014
			c-14.461-12.344-33.182-19.681-53.5-19.681c-17.646,0-32,14.354-32,32c0,17.646,14.354,32,32,32
			c9.01,0,16.635,6.458,18.125,15.333l9.854,59.219c5.198,30.969,31.75,53.448,63.125,53.448h99.775l-6.487,64.871
			c-45.385,2.844-88.392,16.296-88.392,41.796C149.333,498.646,204.625,512,256,512s106.667-13.354,106.667-42.667
			c0-25.5-43.007-38.952-88.392-41.796l-6.487-64.871h99.775c31.375,0,57.927-22.49,63.125-53.49l9.854-59.146
			c1.49-8.906,9.115-15.365,18.125-15.365c17.646,0,32-14.354,32-32C490.667,185.021,476.312,170.667,458.667,170.667z M192,106.667
			c-11.76,0-21.333-9.573-21.333-21.333V42.667c0-11.76,9.573-21.333,21.333-21.333h128c11.76,0,21.333,9.573,21.333,21.333v42.667
			c0,11.76-9.573,21.333-21.333,21.333H192z M128,192c0-11.76,9.573-21.333,21.333-21.333h213.333
			c11.76,0,21.333,9.573,21.333,21.333v26.954c-2.939,6.464-5.359,13.237-6.583,20.546l-9.854,59.167l-223.125,0.01l-9.854-59.208
			c-1.224-7.305-3.645-14.077-6.583-20.536V192z M274.573,465.823c2.021-2.229,3.01-5.219,2.708-8.219l-0.854-8.539
			c44.357,3.335,64.906,16.262,64.906,20.268c0,5.479-29.344,21.333-85.333,21.333s-85.333-15.854-85.333-21.333
			c0-4.007,20.549-16.934,64.906-20.268l-0.854,8.539c-0.302,3,0.688,5.99,2.708,8.219c2.021,2.24,4.896,3.51,7.906,3.51h21.333
			C269.677,469.333,272.552,468.063,274.573,465.823z M458.667,213.333c-19.479,0-35.948,13.948-39.167,33.188l-9.854,59.146
			c-3.469,20.667-21.167,35.667-42.083,35.667H144.437c-20.917,0-38.615-14.99-42.083-35.635L92.5,246.49
			c-3.219-19.208-19.698-33.156-39.167-33.156c-5.885,0-10.667-4.781-10.667-10.667c0-5.885,4.781-10.667,10.667-10.667
			c29.938,0,55.26,21.448,60.208,50.979l9.854,59.24C125.156,312.521,134,320,144.437,320h223.125
			c10.438,0,19.292-7.49,21.042-17.844l9.854-59.146c4.948-29.552,30.271-51.01,60.208-51.01c5.885,0,10.667,4.781,10.667,10.667
			C469.333,208.552,464.552,213.333,458.667,213.333z"/>
	</g>
</g>
<g>
</g>
<g>
</g>
<g>
</g>
<g>
</g>
<g>
</g>
<g>
</g>
<g>
</g>
<g>
</g>
<g>
</g>
<g>
</g>
<g>
</g>
<g>
</g>
<g>
</g>
<g>
</g>
<g>
</g>
</svg>
