<svg id="Capa_1" enable-background="new 0 0 512 512" height="512" viewBox="0 0 512 512" width="512" xmlns="http://www.w3.org/2000/svg"><g><path d="m467 421h-30v-30h15c17.056 0 30-14.29 30-30 0-16.5-13.5-30-30-30h-15c-8.401 0-15-6.601-15-15v-45h-15c-36 0-68.599 25.8-75.2 60h-1.8c-16.5 0-30 13.5-30 30 0 15.76 12.99 30 30 30h15v30h-30c-25.084 0-45 20.297-45 45 0 24.899 20.099 46 45 46h152c24.901 0 45-21.101 45-46 0-24.681-19.891-45-45-45z"/><path d="m165 45c-10.767 0-20.112-7.295-22.734-17.739l-10.547-27.261h-71.719v60h120v-15z"/><path d="m45 90h150v61h-150z"/><path d="m90 271h60v120h-60z"/><path d="m240 250.082c0-25.433-8.707-49.365-23.52-69.082h-192.96c-14.813 19.717-23.52 43.649-23.52 69.082v261.918h240zm-60 170.918h-120v-180h120z"/></g></svg>